<?xml version="1.0" encoding="UTF-8" standalone="no"?>
<!-- Created with Inkscape (http://www.inkscape.org/) -->

<svg
   xmlns:dc="http://purl.org/dc/elements/1.1/"
   xmlns:cc="http://creativecommons.org/ns#"
   xmlns:rdf="http://www.w3.org/1999/02/22-rdf-syntax-ns#"
   xmlns:svg="http://www.w3.org/2000/svg"
   xmlns="http://www.w3.org/2000/svg"
   xmlns:sodipodi="http://sodipodi.sourceforge.net/DTD/sodipodi-0.dtd"
   xmlns:inkscape="http://www.inkscape.org/namespaces/inkscape"
   width="202mm"
   height="217mm"
   viewBox="0 0 202 217"
   version="1.1"
   id="svg8"
   inkscape:version="0.92.1 r15371"
   sodipodi:docname="ataxic.svg"
   inkscape:export-filename="/home/mrlordvondoombraun/hold.png"
   inkscape:export-xdpi="135.71001"
   inkscape:export-ydpi="135.71001">
  <defs
     id="defs2" />
  <sodipodi:namedview
     id="base"
     pagecolor="#ffffff"
     bordercolor="#666666"
     borderopacity="1.0"
     inkscape:pageopacity="0.0"
     inkscape:pageshadow="2"
     inkscape:zoom="0.35355339"
     inkscape:cx="-1269.8254"
     inkscape:cy="394.55844"
     inkscape:document-units="mm"
     inkscape:current-layer="layer1"
     showgrid="false"
     units="mm"
     inkscape:snap-nodes="false"
     inkscape:snap-global="true"
     inkscape:window-width="1920"
     inkscape:window-height="1148"
     inkscape:window-x="0"
     inkscape:window-y="26"
     inkscape:window-maximized="1"
     showguides="false" />
  <metadata
     id="metadata5">
    <rdf:RDF>
      <cc:Work
         rdf:about="">
        <dc:format>image/svg+xml</dc:format>
        <dc:type
           rdf:resource="http://purl.org/dc/dcmitype/StillImage" />
        <dc:title />
      </cc:Work>
    </rdf:RDF>
  </metadata>
  <g
     inkscape:label="Layer 1"
     inkscape:groupmode="layer"
     id="layer1"
     transform="translate(0,-79.999988)">
    <path
       sodipodi:type="star"
       style="opacity:1;fill:#e1e1e1;fill-opacity:1;stroke:none;stroke-width:6.86499977;stroke-linecap:round;stroke-linejoin:round;stroke-miterlimit:4;stroke-dasharray:none;stroke-dashoffset:0;stroke-opacity:1"
       id="path4883"
       sodipodi:sides="13"
       sodipodi:cx="-50.270821"
       sodipodi:cy="8.0749998"
       sodipodi:r1="100.2907"
       sodipodi:r2="81.136871"
       sodipodi:arg1="0.80032243"
       sodipodi:arg2="1.0419834"
       inkscape:flatsided="true"
       inkscape:rounded="0"
       inkscape:randomized="0"
       d="m 19.579184,80.041672 -41.445477,24.217568 -47.952612,2.18292 -43.474385,-20.351817 -29.03669,-38.224188 -7.94705,-47.33986173 14.96317,-45.61054427 34.4455,-33.432401 46.036791,-13.595297 47.0816025,9.356326 37.3405875,30.164527 19.045294,44.062398 -3.613048,47.866105 z"
       inkscape:transform-center-x="0.079926697"
       inkscape:transform-center-y="-9.6500189"
       transform="matrix(1.0097716,0.14133616,-0.14191413,1.0056591,152.21948,188.86223)" />
    <path
       style="fill:#5e5e5e;fill-opacity:1;stroke:none;stroke-width:0.25546321px;stroke-linecap:butt;stroke-linejoin:miter;stroke-opacity:1;opacity:1"
       d="M 104.09094,92.178333 105.15002,228.23784 87.675276,141.96823 97.736487,142.46119 51.137032,90.699424 Z"
       id="path4877"
       inkscape:connector-curvature="0" />
    <path
       inkscape:connector-curvature="0"
       id="path4879"
       d="m 121.40699,91.685363 -1.05908,136.059497 17.47475,-86.2696 -10.06121,0.49296 46.59931,-51.761765 z"
       style="fill:#b8b4b4;fill-opacity:1;stroke:none;stroke-width:0.25546321px;stroke-linecap:butt;stroke-linejoin:miter;stroke-opacity:1;opacity:1" />
    <path
       style="fill:none;fill-opacity:1;stroke:#5e5e5e;stroke-width:6.6281271;stroke-linecap:butt;stroke-linejoin:miter;stroke-miterlimit:4;stroke-dasharray:none;stroke-opacity:1;opacity:1"
       d="m 105.30469,185.46374 c 0,0 67.78085,-50.77221 15.88613,-50.77221"
       id="path4742"
       inkscape:connector-curvature="0" />
    <path
       inkscape:connector-curvature="0"
       id="path4736"
       d="m 106.89331,236.72885 c 0,0 67.78084,-50.77217 15.88613,-50.77217"
       style="fill:none;fill-opacity:1;stroke:#b8b4b4;stroke-width:6.6281271;stroke-linecap:butt;stroke-linejoin:miter;stroke-miterlimit:4;stroke-dasharray:none;stroke-opacity:1;opacity:1" />
    <path
       style="fill:none;fill-opacity:1;stroke:#5e5e5e;stroke-width:6.62836552;stroke-linecap:butt;stroke-linejoin:miter;stroke-miterlimit:4;stroke-dasharray:none;stroke-opacity:1;opacity:1"
       d="m 105.45947,287.88714 c 0,0 67.78083,-50.77582 15.88613,-50.77582"
       id="path4608"
       inkscape:connector-curvature="0" />
    <path
       id="text4491"
       style="font-style:normal;font-variant:normal;font-weight:normal;font-stretch:normal;font-size:304.79998779px;line-height:1.25;font-family:'Nimbus Mono L';-inkscape-font-specification:'Nimbus Mono L, Normal';font-variant-ligatures:normal;font-variant-caps:normal;font-variant-numeric:normal;text-align:start;letter-spacing:0px;word-spacing:0px;writing-mode:lr-tb;text-anchor:start;fill:#000000;fill-opacity:1;stroke:none;stroke-width:1.23442709;opacity:1"
       d="m 97.731219,118.25708 c -3.5983,0 -5.397351,1.96727 -5.397351,5.62031 0,3.93405 1.799051,5.90092 5.397351,5.90093 H 108.52629 V 264.94126 H 97.731219 c -3.5983,0 -5.397351,1.96679 -5.397351,5.61983 0,3.93404 1.799051,5.90092 5.397351,5.90092 H 131.7151 c 3.5983,0 5.39737,-1.96688 5.39737,-5.90092 0,-3.65304 -1.79907,-5.61983 -5.39737,-5.61983 h -14.99296 v -59.0107 h 26.3876 c 15.1928,9.83513 23.9885,25.00892 41.58014,70.53145 h 11.39455 c 3.59827,0 5.39768,-1.96688 5.39768,-5.90092 0,-3.65304 -1.79941,-5.61983 -5.39768,-5.61983 h -6.19685 c -16.19226,-39.62147 -21.78971,-50.01902 -34.38374,-62.10217 18.5912,-8.99211 27.78697,-22.48003 27.78697,-40.74525 0,-23.6043 -16.59235,-43.83676 -35.98317,-43.83676 z m 18.990921,11.52124 h 30.5855 c 14.39319,0 27.78702,15.17421 27.78702,32.03444 0,17.9842 -15.99255,32.59657 -35.58329,32.59657 h -22.78923 z"
       inkscape:connector-curvature="0" />
    <g
       id="g4887"
       transform="matrix(0.99895843,0,0,0.92192688,-19.255569,55.913335)"
       style="opacity:1">
      <path
         inkscape:connector-curvature="0"
         d="m 56.280281,67.803656 c -5.4864,0 -8.229473,2.13387 -8.22947,6.09627 0,4.2672 2.74307,6.400644 8.22947,6.400644 H 92.856342 L 38.297399,226.90922 h -9.449035 c -5.4864,0 -8.229472,2.13387 -8.229471,6.09627 0,4.2672 2.743071,6.40065 8.229471,6.40065 h 46.025098 c 5.4864,0 8.22947,-2.13345 8.22947,-6.40065 0,-3.9624 -2.74307,-6.09627 -8.22947,-6.09627 H 50.794313 l 16.458943,-44.80553 h 43.439174 c -0.36234,-0.82851 -0.6698,-1.67943 -0.88625,-2.56212 -0.15085,-0.57275 -0.28743,-1.14853 -0.41444,-1.72702 -0.14624,-0.72599 -0.28738,-1.45431 -0.36897,-2.19108 -0.081,-0.69916 -0.13831,-1.40092 -0.15452,-2.10478 -0.0201,-1.03777 0.0147,-2.07561 0.15555,-3.10524 0.038,-0.26959 0.0811,-0.53836 0.12712,-0.80667 H 72.129961 L 105.04833,80.30057 h 0.63097 c -0.006,-0.01778 -0.0115,-0.03546 -0.0171,-0.05323 -0.32692,-1.009645 -0.59999,-2.03472 -0.84233,-3.067513 -0.319,-1.398979 -0.45216,-2.828827 -0.50798,-4.259688 -0.0333,-0.804987 -0.0182,-1.60999 0.009,-2.414839 0.0216,-0.881822 0.1183,-1.758691 0.22841,-2.632914 0.003,-0.02299 0.008,-0.04575 0.0114,-0.06873 z"
         style="font-style:normal;font-variant:normal;font-weight:normal;font-stretch:normal;font-size:304.79998779px;line-height:1.25;font-family:'Nimbus Mono L';-inkscape-font-specification:'Nimbus Mono L, Normal';font-variant-ligatures:normal;font-variant-caps:normal;font-variant-numeric:normal;text-align:start;letter-spacing:0px;word-spacing:0px;writing-mode:lr-tb;text-anchor:start;fill:#000000;fill-opacity:1;stroke:none;stroke-width:1.58749986"
         id="text4487" />
      <path
         d="m 75.468775,67.797454 c -5.4864,0 -8.229473,2.13387 -8.22947,6.096268 0,4.2672 2.74307,6.40065 8.22947,6.40065 H 112.04482 L 57.485893,226.90302 h -9.449035 c -5.4864,0 -8.229471,2.13387 -8.229471,6.09627 0,4.2672 2.743071,6.40065 8.229471,6.40065 h 46.025093 c 5.486382,0 8.229459,-2.13345 8.229459,-6.40065 0,-3.9624 -2.743077,-6.09627 -8.229459,-6.09627 H 69.982807 l 16.458944,-44.80553 h 43.439189 c -0.36234,-0.82851 -0.6698,-1.67943 -0.88625,-2.56212 -0.15085,-0.57276 -0.28744,-1.14853 -0.41445,-1.72702 -0.14624,-0.72599 -0.28738,-1.45431 -0.36897,-2.19108 -0.081,-0.69916 -0.13831,-1.40092 -0.15451,-2.10478 -0.0201,-1.03777 0.0147,-2.07561 0.15555,-3.10524 0.038,-0.26959 0.0811,-0.53836 0.12712,-0.80667 H 91.318451 L 124.23684,80.294372 h 0.63097 c -0.006,-0.0178 -0.0115,-0.0355 -0.0171,-0.0532 -0.32692,-1.00965 -0.59999,-2.03472 -0.84233,-3.06752 -0.319,-1.39898 -0.45216,-2.82882 -0.50798,-4.25969 -0.0333,-0.80498 -0.0182,-1.60999 0.009,-2.41483 0.0216,-0.881826 0.1183,-1.758695 0.22841,-2.632918 0.003,-0.02299 0.008,-0.04575 0.0114,-0.06873 z"
         style="font-style:normal;font-variant:normal;font-weight:normal;font-stretch:normal;font-size:304.79998779px;line-height:1.25;font-family:'Nimbus Mono L';-inkscape-font-specification:'Nimbus Mono L, Normal';font-variant-ligatures:normal;font-variant-caps:normal;font-variant-numeric:normal;text-align:start;letter-spacing:0px;word-spacing:0px;writing-mode:lr-tb;text-anchor:start;fill:#000000;fill-opacity:1;stroke:none;stroke-width:1.58749986"
         id="text4487-2"
         inkscape:connector-curvature="0" />
    </g>
    <path
       style="fill:none;fill-opacity:1;stroke:#b8b4b4;stroke-width:6.62836552;stroke-linecap:butt;stroke-linejoin:miter;stroke-miterlimit:4;stroke-dasharray:none;stroke-opacity:1;opacity:1"
       d="m 120.88132,287.99388 c 0,0 -67.780901,-50.77583 -15.88613,-50.77583"
       id="path4608-9"
       inkscape:connector-curvature="0" />
    <g
       id="g4873"
       transform="matrix(0.35189497,0,0,0.48149873,158.41068,1.8655304)"
       style="opacity:1">
      <path
         sodipodi:open="true"
         d="m -105.83338,214.18542 a 24.077084,23.547916 0 0 1 -24.05565,23.54791 24.077084,23.547916 0 0 1 -24.09848,-23.50598 24.077084,23.547916 0 0 1 24.01275,-23.58976 24.077084,23.547916 0 0 1 24.14123,23.46399"
         sodipodi:end="6.2796248"
         sodipodi:start="0"
         sodipodi:ry="23.547916"
         sodipodi:rx="24.077084"
         sodipodi:cy="214.18542"
         sodipodi:cx="-129.91046"
         sodipodi:type="arc"
         id="path4844"
         style="opacity:0.98999999;fill:#000000;fill-opacity:1;stroke:none;stroke-width:5.8118844;stroke-linecap:round;stroke-linejoin:round;stroke-miterlimit:4;stroke-dasharray:0, 5.81188464999999965, 11.62376929999999930, 17.43565395999999978, 23.24753860999999944, 29.05942325999999909, 34.87130790999999874, 40.68319256000000195, 46.49507720999999805, 52.30696187000000208, 58.11884651000000446, 63.93073116999999428, 69.74261580999998955, 75.55450046999997937, 81.36638512000000389;stroke-dashoffset:0;stroke-opacity:1" />
      <path
         d="m -131.23334,205.98332 a 8.2020836,4.2333336 0 0 1 -8.1932,4.23333 8.2020836,4.2333336 0 0 1 -8.21095,-4.22416 8.2020836,4.2333336 0 0 1 8.17541,-4.24248 8.2020836,4.2333336 0 0 1 8.22866,4.21497 l -8.202,0.0183 z"
         sodipodi:end="6.2788527"
         sodipodi:start="0"
         sodipodi:ry="4.2333336"
         sodipodi:rx="8.2020836"
         sodipodi:cy="205.98332"
         sodipodi:cx="-139.43542"
         sodipodi:type="arc"
         id="path4852"
         style="opacity:0.98999999;fill:#f8f7f7;fill-opacity:1;stroke:none;stroke-width:1.01956666;stroke-linecap:round;stroke-linejoin:round;stroke-miterlimit:4;stroke-dasharray:none;stroke-dashoffset:0;stroke-opacity:1" />
      <path
         style="opacity:0.98999999;fill:#f8f7f7;fill-opacity:1;stroke:none;stroke-width:1.01956666;stroke-linecap:round;stroke-linejoin:round;stroke-miterlimit:4;stroke-dasharray:none;stroke-dashoffset:0;stroke-opacity:1"
         id="path4863"
         sodipodi:type="arc"
         sodipodi:cx="-119.85626"
         sodipodi:cy="206.5125"
         sodipodi:rx="8.2020836"
         sodipodi:ry="4.2333336"
         sodipodi:start="0"
         sodipodi:end="6.2788527"
         d="m -111.65418,206.5125 a 8.2020836,4.2333336 0 0 1 -8.1932,4.23333 8.2020836,4.2333336 0 0 1 -8.21095,-4.22416 8.2020836,4.2333336 0 0 1 8.17542,-4.24248 8.2020836,4.2333336 0 0 1 8.22865,4.21497 l -8.202,0.0183 z" />
      <path
         transform="matrix(0.53690384,0,0,0.42899898,-60.635951,130.63358)"
         inkscape:transform-center-y="0.81096799"
         inkscape:transform-center-x="0.03389322"
         d="m -116.41668,204.92498 7.19145,22.91015 -19.56656,13.9191 -19.28426,-14.30767 7.64825,-22.76173 z"
         inkscape:randomized="0"
         inkscape:rounded="0"
         inkscape:flatsided="true"
         sodipodi:arg2="-0.30415799"
         sodipodi:arg1="-0.93247652"
         sodipodi:r2="16.525068"
         sodipodi:r1="20.426107"
         sodipodi:cy="221.32915"
         sodipodi:cx="-128.58751"
         sodipodi:sides="5"
         id="path4867"
         style="opacity:0.98999999;fill:#f8f7f7;fill-opacity:1;stroke:none;stroke-width:6.86499977;stroke-linecap:round;stroke-linejoin:round;stroke-miterlimit:4;stroke-dasharray:none;stroke-dashoffset:0;stroke-opacity:1"
         sodipodi:type="star" />
    </g>
    <path
       style="fill:none;fill-opacity:1;stroke:#5e5e5e;stroke-width:6.6281271;stroke-linecap:butt;stroke-linejoin:miter;stroke-miterlimit:4;stroke-dasharray:none;stroke-opacity:1;opacity:1"
       d="m 119.29271,236.72885 c 0,0 -67.780913,-50.77217 -15.88613,-50.77217"
       id="path4738"
       inkscape:connector-curvature="0" />
    <path
       inkscape:connector-curvature="0"
       id="path4740"
       d="m 120.35179,185.46374 c 0,0 -67.780917,-50.77221 -15.88613,-50.77221"
       style="fill:none;fill-opacity:1;stroke:#b8b4b4;stroke-width:6.6281271;stroke-linecap:butt;stroke-linejoin:miter;stroke-miterlimit:4;stroke-dasharray:none;stroke-opacity:1;opacity:1" />
  </g>
</svg>
